<svg version="1.1" id="Layer_1" xmlns="http://www.w3.org/2000/svg" xmlns:xlink="http://www.w3.org/1999/xlink" x="0px" y="0px"
	 width="100%" viewBox="0 0 512 512" enable-background="new 0 0 512 512" xml:space="preserve">
<path fill="#000000" opacity="1.000000" stroke="none" 
	d="
M320.531342,1.000000 
	C324.528229,3.461823 328.436981,5.482472 331.102203,8.987226 
	C334.228058,13.097795 335.398621,17.780781 335.394348,22.983002 
	C335.328918,102.146637 335.348328,181.310333 335.349792,260.474030 
	C335.349945,267.643768 335.356018,267.652191 342.330994,267.651794 
	C372.829834,267.650146 403.328827,267.687073 433.827423,267.593933 
	C438.779755,267.578796 442.989319,268.247375 445.567932,273.218933 
	C448.404053,278.686981 447.252655,283.606079 443.773773,288.045380 
	C435.490265,298.615692 426.961121,308.993103 418.573914,319.482635 
	C404.393585,337.217377 390.258911,354.988647 376.081238,372.725494 
	C363.665222,388.258545 351.193054,403.746735 338.788269,419.288727 
	C324.427124,437.281830 310.135040,455.329987 295.769928,473.319916 
	C286.059387,485.480774 276.267212,497.576508 266.540192,509.724304 
	C265.934845,510.480316 265.580292,511.437134 265.054504,512.650269 
	C260.643097,513.000000 256.286194,513.000000 251.464645,513.000000 
	C241.719833,503.909790 234.524704,493.086884 226.311539,483.113464 
	C213.151779,467.133270 200.451370,450.774872 187.549759,434.581970 
	C170.828461,413.594971 154.140839,392.580963 137.362427,371.639709 
	C123.273918,354.055756 109.060280,336.572113 94.932671,319.019409 
	C86.624130,308.696533 78.293022,298.389893 70.138245,287.946167 
	C66.637932,283.463348 65.733673,278.470337 68.480942,273.094818 
	C71.025948,268.115021 75.323830,267.572754 80.274475,267.589447 
	C110.758484,267.692322 141.243011,267.641907 171.727371,267.636017 
	C178.630188,267.634705 178.646179,267.622986 178.646774,260.810577 
	C178.653595,183.017166 178.826538,105.222969 178.471008,27.431200 
	C178.418457,15.931797 181.799698,7.420633 191.813416,1.276824 
	C234.687561,1.000000 277.375122,1.000000 320.531342,1.000000 
M312.009033,280.791656 
	C311.888672,278.303223 311.663696,275.814789 311.663116,273.326324 
	C311.645142,192.672897 311.650177,112.019470 311.646515,31.366045 
	C311.646179,24.383501 311.629333,24.371130 304.872437,24.370695 
	C273.044342,24.368652 241.216232,24.370296 209.388123,24.379522 
	C202.354050,24.381561 202.348938,24.398197 202.348785,31.663492 
	C202.347153,112.983475 202.353378,194.303467 202.339798,275.623444 
	C202.337875,287.090424 198.102554,291.355255 186.803986,291.358948 
	C161.808105,291.367157 136.812195,291.338806 111.816360,291.375793 
	C109.895836,291.378632 107.844170,290.811218 105.279259,292.565094 
	C155.756638,355.663696 206.135300,418.638947 256.971771,482.186462 
	C307.969788,418.454865 358.295258,355.563690 408.694824,292.579956 
	C406.278381,290.781464 404.211853,291.395752 402.300018,291.391876 
	C376.637665,291.339935 350.975128,291.378998 325.312775,291.328735 
	C317.845276,291.314117 314.025543,288.339325 312.009033,280.791656 
z"/>
</svg>